Trimmed_Nord000004_forces_filt12Hz.mot
version=1
nRows=29
nColumns=28
inDegrees=yes
endheader
time	R_ground_force_vx	R_ground_force_vy	R_ground_force_vz	R_ground_force_px	R_ground_force_py	R_ground_force_pz	R_ground_torque_x	R_ground_torque_y	R_ground_torque_z	L_ground_force_vx	L_ground_force_vy	L_ground_force_vz	L_ground_force_px	L_ground_force_py	L_ground_force_pz	L_ground_torque_x	L_ground_torque_y	L_ground_torque_z	3_ground_force_vx	3_ground_force_vy	3_ground_force_vz	3_ground_force_px	3_ground_force_py	3_ground_force_pz	3_ground_torque_x	3_ground_torque_y	3_ground_torque_z	
2.504500	  0.000000	  0.000000	  0.000000	  0.000000	  0.000000	  0.000000	  0.000000	  0.000000	  0.000000	 -0.143897	447.591453	-11.443368	 -0.398674	  0.006000	 -1.025663	  0.000000	  5.626774	  0.000000	-11.980275	483.380413	  6.151821	 -0.395706	  0.006000	 -1.368901	  0.000000	 -1.510422	  0.000000
2.505000	  0.000000	  0.000000	  0.000000	  0.000000	  0.000000	  0.000000	  0.000000	  0.000000	  0.000000	 -0.167877	447.616815	-11.392601	 -0.398689	  0.006000	 -1.025693	  0.000000	  5.638296	  0.000000	-12.003155	483.329375	  6.149700	 -0.395704	  0.006000	 -1.368900	  0.000000	 -1.501110	  0.000000
2.505500	  0.000000	  0.000000	  0.000000	  0.000000	  0.000000	  0.000000	  0.000000	  0.000000	  0.000000	 -0.191226	447.642172	-11.341192	 -0.398705	  0.006000	 -1.025724	  0.000000	  5.649939	  0.000000	-12.024488	483.278673	  6.147270	 -0.395705	  0.006000	 -1.368899	  0.000000	 -1.491936	  0.000000
2.506000	  0.000000	  0.000000	  0.000000	  0.000000	  0.000000	  0.000000	  0.000000	  0.000000	  0.000000	 -0.213950	447.667536	-11.289154	 -0.398722	  0.006000	 -1.025756	  0.000000	  5.661702	  0.000000	-12.044238	483.228317	  6.144530	 -0.395708	  0.006000	 -1.368897	  0.000000	 -1.482900	  0.000000
2.506500	  0.000000	  0.000000	  0.000000	  0.000000	  0.000000	  0.000000	  0.000000	  0.000000	  0.000000	 -0.236058	447.692916	-11.236502	 -0.398740	  0.006000	 -1.025788	  0.000000	  5.673581	  0.000000	-12.062370	483.178318	  6.141483	 -0.395713	  0.006000	 -1.368896	  0.000000	 -1.474003	  0.000000
2.507000	  0.000000	  0.000000	  0.000000	  0.000000	  0.000000	  0.000000	  0.000000	  0.000000	  0.000000	 -0.257558	447.718323	-11.183250	 -0.398759	  0.006000	 -1.025820	  0.000000	  5.685572	  0.000000	-12.078850	483.128686	  6.138130	 -0.395721	  0.006000	 -1.368893	  0.000000	 -1.465245	  0.000000
2.507500	  0.000000	  0.000000	  0.000000	  0.000000	  0.000000	  0.000000	  0.000000	  0.000000	  0.000000	 -0.278458	447.743765	-11.129413	 -0.398779	  0.006000	 -1.025853	  0.000000	  5.697674	  0.000000	-12.093646	483.079430	  6.134472	 -0.395731	  0.006000	 -1.368891	  0.000000	 -1.456625	  0.000000
2.508000	  0.000000	  0.000000	  0.000000	  0.000000	  0.000000	  0.000000	  0.000000	  0.000000	  0.000000	 -0.298765	447.769248	-11.075006	 -0.398799	  0.006000	 -1.025886	  0.000000	  5.709882	  0.000000	-12.106723	483.030559	  6.130511	 -0.395744	  0.006000	 -1.368888	  0.000000	 -1.448144	  0.000000
2.508500	  0.000000	  0.000000	  0.000000	  0.000000	  0.000000	  0.000000	  0.000000	  0.000000	  0.000000	 -0.318488	447.794782	-11.020043	 -0.398821	  0.006000	 -1.025920	  0.000000	  5.722193	  0.000000	-12.118052	482.982081	  6.126251	 -0.395759	  0.006000	 -1.368885	  0.000000	 -1.439801	  0.000000
2.509000	  0.000000	  0.000000	  0.000000	  0.000000	  0.000000	  0.000000	  0.000000	  0.000000	  0.000000	 -0.337633	447.820372	-10.964540	 -0.398844	  0.006000	 -1.025954	  0.000000	  5.734606	  0.000000	-12.127602	482.934003	  6.121693	 -0.395777	  0.006000	 -1.368882	  0.000000	 -1.431597	  0.000000
2.509500	  0.000000	  0.000000	  0.000000	  0.000000	  0.000000	  0.000000	  0.000000	  0.000000	  0.000000	 -0.356210	447.846026	-10.908510	 -0.398868	  0.006000	 -1.025988	  0.000000	  5.747117	  0.000000	-12.135343	482.886333	  6.116842	 -0.395797	  0.006000	 -1.368878	  0.000000	 -1.423531	  0.000000
2.510000	  0.000000	  0.000000	  0.000000	  0.000000	  0.000000	  0.000000	  0.000000	  0.000000	  0.000000	 -0.374227	447.871748	-10.851968	 -0.398892	  0.006000	 -1.026023	  0.000000	  5.759723	  0.000000	-12.141247	482.839074	  6.111701	 -0.395819	  0.006000	 -1.368874	  0.000000	 -1.415602	  0.000000
2.510500	  0.000000	  0.000000	  0.000000	  0.000000	  0.000000	  0.000000	  0.000000	  0.000000	  0.000000	 -0.391691	447.897544	-10.794930	 -0.398917	  0.006000	 -1.026058	  0.000000	  5.772422	  0.000000	-12.145288	482.792233	  6.106275	 -0.395844	  0.006000	 -1.368869	  0.000000	 -1.407811	  0.000000
2.511000	  0.000000	  0.000000	  0.000000	  0.000000	  0.000000	  0.000000	  0.000000	  0.000000	  0.000000	 -0.408612	447.923415	-10.737411	 -0.398944	  0.006000	 -1.026094	  0.000000	  5.785211	  0.000000	-12.147439	482.745813	  6.100568	 -0.395872	  0.006000	 -1.368864	  0.000000	 -1.400156	  0.000000
2.511500	  0.000000	  0.000000	  0.000000	  0.000000	  0.000000	  0.000000	  0.000000	  0.000000	  0.000000	 -0.425000	447.949364	-10.679425	 -0.398970	  0.006000	 -1.026130	  0.000000	  5.798088	  0.000000	-12.147676	482.699819	  6.094585	 -0.395902	  0.006000	 -1.368859	  0.000000	 -1.392636	  0.000000
2.512000	  0.000000	  0.000000	  0.000000	  0.000000	  0.000000	  0.000000	  0.000000	  0.000000	  0.000000	 -0.440863	447.975390	-10.620987	 -0.398998	  0.006000	 -1.026166	  0.000000	  5.811052	  0.000000	-12.145975	482.654254	  6.088332	 -0.395935	  0.006000	 -1.368853	  0.000000	 -1.385250	  0.000000
2.512500	  0.000000	  0.000000	  0.000000	  0.000000	  0.000000	  0.000000	  0.000000	  0.000000	  0.000000	 -0.456213	448.001489	-10.562113	 -0.399026	  0.006000	 -1.026202	  0.000000	  5.824098	  0.000000	-12.142314	482.609122	  6.081815	 -0.395971	  0.006000	 -1.368848	  0.000000	 -1.377996	  0.000000
2.513000	  0.000000	  0.000000	  0.000000	  0.000000	  0.000000	  0.000000	  0.000000	  0.000000	  0.000000	 -0.471059	448.027659	-10.502817	 -0.399056	  0.006000	 -1.026239	  0.000000	  5.837226	  0.000000	-12.136670	482.564427	  6.075039	 -0.396009	  0.006000	 -1.368841	  0.000000	 -1.370872	  0.000000
2.513500	  0.000000	  0.000000	  0.000000	  0.000000	  0.000000	  0.000000	  0.000000	  0.000000	  0.000000	 -0.485411	448.053894	-10.443117	 -0.399085	  0.006000	 -1.026276	  0.000000	  5.850431	  0.000000	-12.129025	482.520173	  6.068011	 -0.396049	  0.006000	 -1.368835	  0.000000	 -1.363877	  0.000000
2.514000	  0.000000	  0.000000	  0.000000	  0.000000	  0.000000	  0.000000	  0.000000	  0.000000	  0.000000	 -0.499281	448.080189	-10.383028	 -0.399116	  0.006000	 -1.026313	  0.000000	  5.863713	  0.000000	-12.119361	482.476365	  6.060738	 -0.396092	  0.006000	 -1.368828	  0.000000	 -1.357009	  0.000000
2.514500	  0.000000	  0.000000	  0.000000	  0.000000	  0.000000	  0.000000	  0.000000	  0.000000	  0.000000	 -0.512679	448.106538	-10.322566	 -0.399147	  0.006000	 -1.026350	  0.000000	  5.877066	  0.000000	-12.107661	482.433007	  6.053228	 -0.396138	  0.006000	 -1.368821	  0.000000	 -1.350266	  0.000000
2.515000	  0.000000	  0.000000	  0.000000	  0.000000	  0.000000	  0.000000	  0.000000	  0.000000	  0.000000	 -0.525614	448.132932	-10.261749	 -0.399179	  0.006000	 -1.026388	  0.000000	  5.890488	  0.000000	-12.093912	482.390104	  6.045486	 -0.396186	  0.006000	 -1.368813	  0.000000	 -1.343646	  0.000000
2.515500	  0.000000	  0.000000	  0.000000	  0.000000	  0.000000	  0.000000	  0.000000	  0.000000	  0.000000	 -0.538099	448.159363	-10.200593	 -0.399211	  0.006000	 -1.026426	  0.000000	  5.903977	  0.000000	-12.078102	482.347661	  6.037521	 -0.396236	  0.006000	 -1.368805	  0.000000	 -1.337146	  0.000000
2.516000	  0.000000	  0.000000	  0.000000	  0.000000	  0.000000	  0.000000	  0.000000	  0.000000	  0.000000	 -0.550144	448.185821	-10.139116	 -0.399244	  0.006000	 -1.026464	  0.000000	  5.917528	  0.000000	-12.060220	482.305681	  6.029340	 -0.396289	  0.006000	 -1.368797	  0.000000	 -1.330767	  0.000000
2.516500	  0.000000	  0.000000	  0.000000	  0.000000	  0.000000	  0.000000	  0.000000	  0.000000	  0.000000	 -0.561762	448.212297	-10.077335	 -0.399277	  0.006000	 -1.026503	  0.000000	  5.931138	  0.000000	-12.040259	482.264167	  6.020951	 -0.396345	  0.006000	 -1.368788	  0.000000	 -1.324504	  0.000000
2.517000	  0.000000	  0.000000	  0.000000	  0.000000	  0.000000	  0.000000	  0.000000	  0.000000	  0.000000	 -0.572963	448.238779	-10.015266	 -0.399311	  0.006000	 -1.026541	  0.000000	  5.944805	  0.000000	-12.018211	482.223120	  6.012361	 -0.396403	  0.006000	 -1.368779	  0.000000	 -1.318358	  0.000000
2.517500	  0.000000	  0.000000	  0.000000	  0.000000	  0.000000	  0.000000	  0.000000	  0.000000	  0.000000	 -0.583760	448.265259	 -9.952929	 -0.399346	  0.006000	 -1.026580	  0.000000	  5.958525	  0.000000	-11.994074	482.182540	  6.003578	 -0.396463	  0.006000	 -1.368770	  0.000000	 -1.312327	  0.000000
2.518000	  0.000000	  0.000000	  0.000000	  0.000000	  0.000000	  0.000000	  0.000000	  0.000000	  0.000000	 -0.594167	448.291724	 -9.890338	 -0.399380	  0.006000	 -1.026619	  0.000000	  5.972295	  0.000000	-11.967842	482.142424	  5.994609	 -0.396526	  0.006000	 -1.368761	  0.000000	 -1.306409	  0.000000
2.518500	  0.000000	  0.000000	  0.000000	  0.000000	  0.000000	  0.000000	  0.000000	  0.000000	  0.000000	 -0.604196	448.318164	 -9.827512	 -0.399416	  0.006000	 -1.026658	  0.000000	  5.986111	  0.000000	-11.939516	482.102768	  5.985459	 -0.396591	  0.006000	 -1.368751	  0.000000	 -1.300605	  0.000000
